<svg id="visual" viewBox="0 0 900 600" width="900" height="600" xmlns="http://www.w3.org/2000/svg" xmlns:xlink="http://www.w3.org/1999/xlink" version="1.1"><path d="M0 151L13.7 136C27.3 121 54.7 91 82 84C109.3 77 136.7 93 163.8 107C191 121 218 133 245.2 129C272.3 125 299.7 105 327 108C354.3 111 381.7 137 409 133C436.3 129 463.7 95 491 78C518.3 61 545.7 61 573 72C600.3 83 627.7 105 654.8 109C682 113 709 99 736.2 86C763.3 73 790.7 61 818 64C845.3 67 872.7 85 886.3 94L900 103L900 0L886.3 0C872.7 0 845.3 0 818 0C790.7 0 763.3 0 736.2 0C709 0 682 0 654.8 0C627.7 0 600.3 0 573 0C545.7 0 518.3 0 491 0C463.7 0 436.3 0 409 0C381.7 0 354.3 0 327 0C299.7 0 272.3 0 245.2 0C218 0 191 0 163.8 0C136.7 0 109.3 0 82 0C54.7 0 27.3 0 13.7 0L0 0Z" fill="#110409"></path><path d="M0 265L13.7 271C27.3 277 54.7 289 82 312C109.3 335 136.7 369 163.8 362C191 355 218 307 245.2 274C272.3 241 299.7 223 327 242C354.3 261 381.7 317 409 329C436.3 341 463.7 309 491 287C518.3 265 545.7 253 573 249C600.3 245 627.7 249 654.8 247C682 245 709 237 736.2 225C763.3 213 790.7 197 818 209C845.3 221 872.7 261 886.3 281L900 301L900 101L886.3 92C872.7 83 845.3 65 818 62C790.7 59 763.3 71 736.2 84C709 97 682 111 654.8 107C627.7 103 600.3 81 573 70C545.7 59 518.3 59 491 76C463.7 93 436.3 127 409 131C381.7 135 354.3 109 327 106C299.7 103 272.3 123 245.2 127C218 131 191 119 163.8 105C136.7 91 109.3 75 82 82C54.7 89 27.3 119 13.7 134L0 149Z" fill="#210e15"></path><path d="M0 331L13.7 336C27.3 341 54.7 351 82 372C109.3 393 136.7 425 163.8 429C191 433 218 409 245.2 382C272.3 355 299.7 325 327 330C354.3 335 381.7 375 409 393C436.3 411 463.7 407 491 394C518.3 381 545.7 359 573 345C600.3 331 627.7 325 654.8 318C682 311 709 303 736.2 298C763.3 293 790.7 291 818 304C845.3 317 872.7 345 886.3 359L900 373L900 299L886.3 279C872.7 259 845.3 219 818 207C790.7 195 763.3 211 736.2 223C709 235 682 243 654.8 245C627.7 247 600.3 243 573 247C545.7 251 518.3 263 491 285C463.7 307 436.3 339 409 327C381.7 315 354.3 259 327 240C299.7 221 272.3 239 245.2 272C218 305 191 353 163.8 360C136.7 367 109.3 333 82 310C54.7 287 27.3 275 13.7 269L0 263Z" fill="#4b1a2d"></path><path d="M0 421L13.7 419C27.3 417 54.7 413 82 425C109.3 437 136.7 465 163.8 470C191 475 218 457 245.2 436C272.3 415 299.7 391 327 404C354.3 417 381.7 467 409 484C436.3 501 463.7 485 491 464C518.3 443 545.7 417 573 406C600.3 395 627.7 399 654.8 400C682 401 709 399 736.2 397C763.3 395 790.7 393 818 400C845.3 407 872.7 423 886.3 431L900 439L900 371L886.3 357C872.7 343 845.3 315 818 302C790.7 289 763.3 291 736.2 296C709 301 682 309 654.8 316C627.7 323 600.3 329 573 343C545.7 357 518.3 379 491 392C463.7 405 436.3 409 409 391C381.7 373 354.3 333 327 328C299.7 323 272.3 353 245.2 380C218 407 191 431 163.8 427C136.7 423 109.3 391 82 370C54.7 349 27.3 339 13.7 334L0 329Z" fill="#210e15"></path><path d="M0 601L13.7 601C27.3 601 54.7 601 82 601C109.3 601 136.7 601 163.8 601C191 601 218 601 245.2 601C272.3 601 299.7 601 327 601C354.3 601 381.7 601 409 601C436.3 601 463.7 601 491 601C518.3 601 545.7 601 573 601C600.3 601 627.7 601 654.8 601C682 601 709 601 736.2 601C763.3 601 790.7 601 818 601C845.3 601 872.7 601 886.3 601L900 601L900 437L886.3 429C872.7 421 845.3 405 818 398C790.7 391 763.3 393 736.2 395C709 397 682 399 654.8 398C627.7 397 600.3 393 573 404C545.7 415 518.3 441 491 462C463.7 483 436.3 499 409 482C381.7 465 354.3 415 327 402C299.7 389 272.3 413 245.2 434C218 455 191 473 163.8 468C136.7 463 109.3 435 82 423C54.7 411 27.3 415 13.7 417L0 419Z" fill="#110409"></path></svg>